<mxfile host="app.diagrams.net" agent="Mozilla/5.0 (Windows NT 10.0; Win64; x64) AppleWebKit/537.36 (KHTML, like Gecko) Chrome/129.0.0.0 Safari/537.36" version="24.7.17">
  <diagram name="1 oldal" id="KCAEe9KsVQIX04C2-VGV">
    <mxGraphModel dx="1674" dy="780" grid="1" gridSize="10" guides="1" tooltips="1" connect="1" arrows="1" fold="1" page="1" pageScale="1" pageWidth="827" pageHeight="1169" math="0" shadow="0">
      <root>
        <mxCell id="0" />
        <mxCell id="1" parent="0" />
        <mxCell id="BFzGRyPFIxxS0vN6vTsB-1" value="Táncverseny&lt;div&gt;&lt;br&gt;&lt;/div&gt;" style="rounded=0;whiteSpace=wrap;html=1;" parent="1" vertex="1">
          <mxGeometry x="380" y="90" width="120" height="320" as="geometry" />
        </mxCell>
        <mxCell id="BFzGRyPFIxxS0vN6vTsB-2" value="&lt;div&gt;id&lt;/div&gt;név&lt;div&gt;helyszínid&lt;/div&gt;&lt;div&gt;időpont start&lt;/div&gt;&lt;div&gt;időpont end(date?)&lt;/div&gt;&lt;div&gt;list csoportok id&lt;/div&gt;&lt;div&gt;&lt;br&gt;&lt;/div&gt;" style="text;html=1;align=center;verticalAlign=middle;whiteSpace=wrap;rounded=0;" parent="1" vertex="1">
          <mxGeometry x="380" y="300" width="120" height="30" as="geometry" />
        </mxCell>
        <mxCell id="BFzGRyPFIxxS0vN6vTsB-8" value="csoportok" style="rounded=0;whiteSpace=wrap;html=1;" parent="1" vertex="1">
          <mxGeometry x="580" y="90" width="120" height="310" as="geometry" />
        </mxCell>
        <mxCell id="BFzGRyPFIxxS0vN6vTsB-9" value="id&lt;div&gt;név&lt;/div&gt;&lt;div&gt;koreugráfus&lt;/div&gt;&lt;div&gt;list tagokid&lt;/div&gt;&lt;div&gt;nemzetiségid&lt;/div&gt;" style="text;html=1;align=center;verticalAlign=middle;whiteSpace=wrap;rounded=0;" parent="1" vertex="1">
          <mxGeometry x="590" y="300" width="120" height="30" as="geometry" />
        </mxCell>
        <mxCell id="BFzGRyPFIxxS0vN6vTsB-10" style="edgeStyle=orthogonalEdgeStyle;rounded=0;orthogonalLoop=1;jettySize=auto;html=1;exitX=0;exitY=0.603;exitDx=0;exitDy=0;entryX=1.008;entryY=0.775;entryDx=0;entryDy=0;entryPerimeter=0;exitPerimeter=0;" parent="1" source="BFzGRyPFIxxS0vN6vTsB-8" target="BFzGRyPFIxxS0vN6vTsB-1" edge="1">
          <mxGeometry relative="1" as="geometry" />
        </mxCell>
        <mxCell id="BFzGRyPFIxxS0vN6vTsB-17" style="edgeStyle=orthogonalEdgeStyle;rounded=0;orthogonalLoop=1;jettySize=auto;html=1;" parent="1" source="BFzGRyPFIxxS0vN6vTsB-11" target="BFzGRyPFIxxS0vN6vTsB-8" edge="1">
          <mxGeometry relative="1" as="geometry" />
        </mxCell>
        <mxCell id="BFzGRyPFIxxS0vN6vTsB-11" value="tag" style="rounded=0;whiteSpace=wrap;html=1;" parent="1" vertex="1">
          <mxGeometry x="450" y="440" width="120" height="310" as="geometry" />
        </mxCell>
        <mxCell id="BFzGRyPFIxxS0vN6vTsB-12" value="cím" style="rounded=0;whiteSpace=wrap;html=1;" parent="1" vertex="1">
          <mxGeometry x="50" y="375" width="120" height="210" as="geometry" />
        </mxCell>
        <mxCell id="BFzGRyPFIxxS0vN6vTsB-13" value="&lt;div&gt;id&lt;/div&gt;ország&lt;div&gt;város&lt;/div&gt;&lt;div&gt;irányítószám&lt;/div&gt;&lt;div&gt;utca&lt;/div&gt;&lt;div&gt;házszám&lt;/div&gt;" style="text;html=1;align=center;verticalAlign=middle;whiteSpace=wrap;rounded=0;" parent="1" vertex="1">
          <mxGeometry x="70" y="530" width="80" height="30" as="geometry" />
        </mxCell>
        <mxCell id="BFzGRyPFIxxS0vN6vTsB-14" style="edgeStyle=orthogonalEdgeStyle;rounded=0;orthogonalLoop=1;jettySize=auto;html=1;exitX=0.5;exitY=0;exitDx=0;exitDy=0;entryX=-0.008;entryY=0.694;entryDx=0;entryDy=0;entryPerimeter=0;" parent="1" source="BFzGRyPFIxxS0vN6vTsB-12" target="BFzGRyPFIxxS0vN6vTsB-1" edge="1">
          <mxGeometry relative="1" as="geometry" />
        </mxCell>
        <mxCell id="BFzGRyPFIxxS0vN6vTsB-15" style="edgeStyle=orthogonalEdgeStyle;rounded=0;orthogonalLoop=1;jettySize=auto;html=1;exitX=1;exitY=0.5;exitDx=0;exitDy=0;entryX=-0.025;entryY=0.626;entryDx=0;entryDy=0;entryPerimeter=0;" parent="1" source="BFzGRyPFIxxS0vN6vTsB-12" target="BFzGRyPFIxxS0vN6vTsB-11" edge="1">
          <mxGeometry relative="1" as="geometry" />
        </mxCell>
        <mxCell id="BFzGRyPFIxxS0vN6vTsB-16" value="id&lt;div&gt;név&lt;/div&gt;&lt;div&gt;nem&lt;/div&gt;&lt;div&gt;születési időpont&lt;/div&gt;&lt;div&gt;címid&lt;/div&gt;" style="text;html=1;align=center;verticalAlign=middle;whiteSpace=wrap;rounded=0;" parent="1" vertex="1">
          <mxGeometry x="480" y="660" width="60" height="30" as="geometry" />
        </mxCell>
        <mxCell id="k9wbKbgNkvlpOQR_5MBc-1" value="Nemzetiség" style="swimlane;fontStyle=0;childLayout=stackLayout;horizontal=1;startSize=30;horizontalStack=0;resizeParent=1;resizeParentMax=0;resizeLast=0;collapsible=1;marginBottom=0;whiteSpace=wrap;html=1;" vertex="1" parent="1">
          <mxGeometry x="660" y="440" width="140" height="120" as="geometry" />
        </mxCell>
        <mxCell id="k9wbKbgNkvlpOQR_5MBc-2" value="id" style="text;strokeColor=none;fillColor=none;align=left;verticalAlign=middle;spacingLeft=4;spacingRight=4;overflow=hidden;points=[[0,0.5],[1,0.5]];portConstraint=eastwest;rotatable=0;whiteSpace=wrap;html=1;" vertex="1" parent="k9wbKbgNkvlpOQR_5MBc-1">
          <mxGeometry y="30" width="140" height="30" as="geometry" />
        </mxCell>
        <mxCell id="k9wbKbgNkvlpOQR_5MBc-3" value="name" style="text;strokeColor=none;fillColor=none;align=left;verticalAlign=middle;spacingLeft=4;spacingRight=4;overflow=hidden;points=[[0,0.5],[1,0.5]];portConstraint=eastwest;rotatable=0;whiteSpace=wrap;html=1;" vertex="1" parent="k9wbKbgNkvlpOQR_5MBc-1">
          <mxGeometry y="60" width="140" height="30" as="geometry" />
        </mxCell>
        <mxCell id="k9wbKbgNkvlpOQR_5MBc-4" value="csoportok" style="text;strokeColor=none;fillColor=none;align=left;verticalAlign=middle;spacingLeft=4;spacingRight=4;overflow=hidden;points=[[0,0.5],[1,0.5]];portConstraint=eastwest;rotatable=0;whiteSpace=wrap;html=1;" vertex="1" parent="k9wbKbgNkvlpOQR_5MBc-1">
          <mxGeometry y="90" width="140" height="30" as="geometry" />
        </mxCell>
        <mxCell id="k9wbKbgNkvlpOQR_5MBc-5" style="edgeStyle=orthogonalEdgeStyle;rounded=0;orthogonalLoop=1;jettySize=auto;html=1;entryX=0.983;entryY=0.826;entryDx=0;entryDy=0;entryPerimeter=0;" edge="1" parent="1" source="k9wbKbgNkvlpOQR_5MBc-1" target="BFzGRyPFIxxS0vN6vTsB-8">
          <mxGeometry relative="1" as="geometry">
            <Array as="points">
              <mxPoint x="730" y="346" />
            </Array>
          </mxGeometry>
        </mxCell>
      </root>
    </mxGraphModel>
  </diagram>
</mxfile>
